# Blender 5.1.2
# www.blender.org
mtllib bulb.mtl
o ps1_lightBulb.001
v 0.000000 3.774120 0.044524
v 0.000000 3.760033 0.047811
v 0.000000 3.774120 -0.044524
v 0.000000 3.760033 -0.047811
v -0.039353 3.774120 0.036677
v -0.043058 3.760033 0.040263
v -0.039353 3.774120 -0.036677
v -0.043058 3.760033 -0.040263
v 0.000000 3.746056 0.051145
v 0.000000 3.746056 -0.051145
v -0.051014 3.746056 0.042759
v -0.051014 3.746056 -0.042759
v 0.000000 3.724767 0.063483
v 0.000000 3.724767 -0.063483
v -0.062069 3.724767 0.051955
v -0.062069 3.724767 -0.051955
v -0.000000 3.706274 0.074085
v -0.000000 3.706274 -0.074085
v -0.073543 3.703510 0.056013
v -0.073543 3.703510 -0.056013
v -0.000000 3.689502 0.082486
v -0.000000 3.689502 -0.082486
v -0.082118 3.685185 0.059049
v -0.082118 3.685185 -0.059049
v -0.000000 3.659611 0.089467
v -0.000000 3.659611 -0.089467
v -0.087918 3.657084 0.057962
v -0.087918 3.657084 -0.057962
v -0.000000 3.644344 0.088782
v -0.000000 3.644344 -0.088782
v -0.085604 3.637421 0.055519
v -0.085604 3.637421 -0.055519
v -0.000000 3.627786 0.085652
v -0.000000 3.627786 -0.085652
v -0.078464 3.618498 0.052502
v -0.078464 3.618498 -0.052502
v -0.000000 3.614024 0.078735
v -0.000000 3.614024 -0.078735
v -0.071736 3.607172 0.047182
v -0.071736 3.607172 -0.047182
v -0.000000 3.597681 0.067677
v -0.000000 3.597681 -0.067677
v -0.057995 3.591417 0.038481
v -0.057995 3.591417 -0.038481
v -0.000000 3.580908 0.050243
v -0.000000 3.580908 -0.050243
v -0.041922 3.577867 0.024792
v -0.041922 3.577867 -0.024792
v -0.000000 3.570371 0.030730
v -0.000000 3.570371 -0.030730
v -0.026802 3.569884 0.015932
v -0.026802 3.569884 -0.015932
v -0.000000 3.565856 0.010383
v -0.000000 3.565856 -0.010383
v -0.013370 3.565856 0.010383
v -0.013370 3.565856 -0.010383
v 0.000000 3.781862 0.043656
v 0.000000 3.781862 -0.040861
v -0.041806 3.781862 0.036733
v -0.041806 3.781862 -0.033937
v 0.000000 3.794506 0.037523
v 0.000000 3.794506 -0.032685
v -0.034444 3.794506 0.037523
v -0.034444 3.794506 -0.032685
v 0.000000 3.839147 0.037605
v 0.000000 3.839147 -0.032767
v -0.033943 3.839147 0.037605
v -0.033943 3.839147 -0.032767
v -0.020583 3.851533 -0.021476
v -0.020583 3.851533 0.025776
v 0.000000 3.851533 -0.021476
v 0.000000 3.851533 0.025776
v -0.015886 3.855936 -0.015281
v -0.015886 3.855936 0.018986
v 0.000000 3.855936 -0.015281
v 0.000000 3.855936 0.018986
v -0.008701 3.860415 -0.005513
v -0.008701 3.860415 0.011216
v 0.000000 3.860415 -0.005513
v 0.000000 3.860415 0.011216
v 0.039353 3.774120 0.036677
v 0.043058 3.760033 0.040263
v 0.039353 3.774120 -0.036677
v 0.043058 3.760033 -0.040263
v 0.051014 3.746056 0.042759
v 0.051014 3.746056 -0.042759
v 0.062069 3.724767 0.051955
v 0.062069 3.724767 -0.051955
v 0.073543 3.703510 0.056013
v 0.073543 3.703510 -0.056013
v 0.082118 3.685185 0.059049
v 0.082118 3.685185 -0.059049
v 0.087918 3.657084 0.057962
v 0.087918 3.657084 -0.057962
v 0.085604 3.637421 0.055519
v 0.085604 3.637421 -0.055519
v 0.078464 3.618498 0.052502
v 0.078464 3.618498 -0.052502
v 0.071736 3.607172 0.047182
v 0.071736 3.607172 -0.047182
v 0.057995 3.591417 0.038481
v 0.057995 3.591417 -0.038481
v 0.041922 3.577867 0.024792
v 0.041922 3.577867 -0.024792
v 0.026802 3.569884 0.015932
v 0.026802 3.569884 -0.015932
v 0.013370 3.565856 0.010383
v 0.013370 3.565856 -0.010383
v 0.041806 3.781862 0.036733
v 0.041806 3.781862 -0.033937
v 0.034444 3.794506 0.037523
v 0.034444 3.794506 -0.032685
v 0.033943 3.839147 0.037605
v 0.033943 3.839147 -0.032767
v 0.020583 3.851533 -0.021476
v 0.020583 3.851533 0.025776
v 0.015886 3.855936 -0.015281
v 0.015886 3.855936 0.018986
v 0.008701 3.860415 -0.005513
v 0.008701 3.860415 0.011216
vn -0.1776 0.2552 -0.9504
vn -0.9671 0.2544 -0.0000
vn -0.1776 0.2552 0.9504
vn -0.1790 0.0232 0.9836
vn -0.8691 0.4947 -0.0000
vn -0.8875 0.4609 -0.0000
vn -0.1619 0.2454 0.9558
vn -0.1619 0.2454 -0.9558
vn -0.2039 0.3900 0.8979
vn -0.1524 0.4773 0.8654
vn -0.1524 0.4773 -0.8654
vn -0.9057 0.4238 -0.0000
vn -0.2039 0.3900 -0.8979
vn -0.8800 0.4750 -0.0000
vn -0.2559 0.3554 0.8990
vn -0.2559 0.3554 -0.8990
vn -0.3426 -0.1063 0.9334
vn -0.3096 0.1267 0.9424
vn -0.3096 0.1267 -0.9424
vn -0.9794 0.2021 -0.0000
vn -0.9356 -0.3530 -0.0000
vn -0.3426 -0.1063 -0.9334
vn -0.9931 -0.1169 -0.0000
vn -0.3024 -0.4821 0.8223
vn -0.3460 -0.2274 0.9103
vn -0.3460 -0.2274 -0.9103
vn -0.2931 -0.5891 -0.7531
vn -0.3024 -0.4821 -0.8223
vn -0.8598 -0.5107 -0.0000
vn -0.6446 -0.7646 -0.0000
vn -0.7536 -0.6573 -0.0000
vn -0.2931 -0.5891 0.7531
vn -0.2185 -0.8664 0.4491
vn -0.2590 -0.7553 0.6021
vn -0.2590 -0.7553 -0.6021
vn -0.2873 -0.9578 -0.0000
vn -0.2185 -0.8664 -0.4491
vn -0.4669 -0.8843 -0.0000
vn -0.0000 -1.0000 -0.0000
vn -0.0881 -0.9586 0.2706
vn -0.0881 -0.9586 -0.2706
vn -0.0880 0.2304 0.9691
vn -0.1675 0.3540 -0.9201
vn -0.9533 -0.3021 -0.0000
vn -0.9999 0.0112 -0.0000
vn -0.0840 0.3695 -0.9254
vn -0.8642 0.5032 -0.0000
vn -0.6799 0.7333 -0.0000
vn -0.0000 -0.0018 1.0000
vn -0.0000 -0.0018 -1.0000
vn -0.0000 0.6737 -0.7390
vn -0.0000 0.6906 0.7232
vn -0.0000 0.8152 -0.5792
vn -0.0000 0.9090 -0.4169
vn -0.0000 0.8391 0.5440
vn -0.6839 0.7296 -0.0000
vn -0.0000 1.0000 -0.0000
vn -0.0000 0.8663 0.4995
vn -0.5291 0.8486 -0.0000
vn 0.1776 0.2552 -0.9504
vn 0.9671 0.2544 -0.0000
vn 0.1776 0.2552 0.9504
vn 0.1790 0.0232 0.9836
vn 0.8691 0.4947 -0.0000
vn 0.8875 0.4609 -0.0000
vn 0.1619 0.2454 0.9558
vn 0.1619 0.2454 -0.9558
vn 0.2039 0.3900 0.8979
vn 0.1524 0.4773 0.8654
vn 0.1524 0.4773 -0.8654
vn 0.9057 0.4238 -0.0000
vn 0.2039 0.3900 -0.8979
vn 0.8800 0.4750 -0.0000
vn 0.2559 0.3554 0.8990
vn 0.2559 0.3554 -0.8990
vn 0.3426 -0.1063 0.9334
vn 0.3096 0.1267 0.9424
vn 0.3096 0.1267 -0.9424
vn 0.9794 0.2021 -0.0000
vn 0.9356 -0.3530 -0.0000
vn 0.3426 -0.1063 -0.9334
vn 0.9931 -0.1169 -0.0000
vn 0.3024 -0.4821 0.8223
vn 0.3460 -0.2274 0.9103
vn 0.3460 -0.2274 -0.9103
vn 0.2931 -0.5891 -0.7531
vn 0.3024 -0.4821 -0.8223
vn 0.8598 -0.5107 -0.0000
vn 0.6446 -0.7646 -0.0000
vn 0.7536 -0.6573 -0.0000
vn 0.2931 -0.5891 0.7531
vn 0.2185 -0.8664 0.4491
vn 0.2590 -0.7553 0.6021
vn 0.2590 -0.7553 -0.6021
vn 0.2873 -0.9578 -0.0000
vn 0.2185 -0.8664 -0.4491
vn 0.4669 -0.8843 -0.0000
vn 0.0881 -0.9586 0.2706
vn 0.0881 -0.9586 -0.2706
vn 0.0880 0.2304 0.9691
vn 0.1675 0.3540 -0.9201
vn 0.9533 -0.3021 -0.0000
vn 0.9999 0.0112 -0.0000
vn 0.0840 0.3695 -0.9254
vn 0.8642 0.5032 -0.0000
vn 0.6799 0.7333 -0.0000
vn 0.6839 0.7296 -0.0000
vn 0.5291 0.8486 -0.0000
vt 0.491635 0.300717
vt 0.491635 0.347615
vt 0.729544 0.347615
vt 0.709070 0.300717
vt 0.696740 0.304829
vt 0.716441 0.351455
vt 0.274091 0.351455
vt 0.293791 0.304829
vt 0.491635 0.274946
vt 0.722626 0.274946
vt 0.730149 0.397716
vt 0.260383 0.397716
vt 0.780666 0.468176
vt 0.209865 0.468176
vt 0.773501 0.394147
vt 0.491635 0.394147
vt 0.491635 0.465018
vt 0.834586 0.465018
vt 0.897985 0.535785
vt 0.491635 0.526583
vt 0.187572 0.538532
vt 0.802960 0.538532
vt 0.819636 0.599182
vt 0.170896 0.599182
vt 0.945365 0.596789
vt 0.491635 0.582421
vt 0.491635 0.681927
vt 0.977411 0.690341
vt 0.964622 0.755802
vt 0.491635 0.732754
vt 0.813665 0.692190
vt 0.176866 0.692190
vt 0.190289 0.757271
vt 0.800243 0.757271
vt 0.783669 0.819901
vt 0.206862 0.819901
vt 0.491635 0.787876
vt 0.925174 0.818797
vt 0.888001 0.856502
vt 0.491635 0.833693
vt 0.491635 0.888099
vt 0.812075 0.908952
vt 0.754450 0.857386
vt 0.236081 0.857386
vt 0.283881 0.909532
vt 0.706650 0.909532
vt 0.631453 0.954378
vt 0.359079 0.954378
vt 0.491635 0.943937
vt 0.723269 0.954060
vt 0.639722 0.980636
vt 0.491635 0.979015
vt 0.407747 0.980800
vt 0.582784 0.980800
vt 0.552300 0.994134
vt 0.438231 0.994134
vt 0.565507 0.994048
vt 0.491635 0.994048
vt 0.491635 0.232853
vt 0.681947 0.232853
vt 0.293483 0.279208
vt 0.681692 0.279208
vt 0.674810 0.237359
vt 0.289144 0.237359
vt 0.288691 0.089607
vt 0.675262 0.089607
vt 0.353669 0.048612
vt 0.613237 0.048612
vt 0.491635 0.084238
vt 0.679180 0.084238
vt 0.605360 0.043003
vt 0.491635 0.043003
vt 0.579411 0.028348
vt 0.491635 0.028348
vt 0.539709 0.013434
vt 0.491635 0.013434
vt 0.390968 0.034041
vt 0.579205 0.034041
vt 0.525548 0.019214
vt 0.433652 0.019214
s 0
usemtl LightBulb
f 3/1/1 4/2/1 8/3/1 7/4/1
f 7/5/2 8/6/2 6/7/2 5/8/2
f 5/4/3 6/3/3 2/2/3 1/1/3
f 5/4/4 1/1/4 57/9/4 59/10/4
f 6/7/5 8/6/5 12/11/5 11/12/5
f 11/12/6 12/11/6 16/13/6 15/14/6
f 2/2/7 6/3/7 11/15/7 9/16/7
f 8/3/8 4/2/8 10/16/8 12/15/8
f 13/17/9 15/18/9 19/19/9 17/20/9
f 9/16/10 11/15/10 15/18/10 13/17/10
f 12/15/11 10/16/11 14/17/11 16/18/11
f 19/21/12 20/22/12 24/23/12 23/24/12
f 16/18/13 14/17/13 18/20/13 20/19/13
f 15/14/14 16/13/14 20/22/14 19/21/14
f 17/20/15 19/19/15 23/25/15 21/26/15
f 20/19/16 18/20/16 22/26/16 24/25/16
f 25/27/17 27/28/17 31/29/17 29/30/17
f 21/26/18 23/25/18 27/28/18 25/27/18
f 24/25/19 22/26/19 26/27/19 28/28/19
f 23/24/20 24/23/20 28/31/20 27/32/20
f 31/33/21 32/34/21 36/35/21 35/36/21
f 28/28/22 26/27/22 30/30/22 32/29/22
f 27/32/23 28/31/23 32/34/23 31/33/23
f 33/37/24 35/38/24 39/39/24 37/40/24
f 29/30/25 31/29/25 35/38/25 33/37/25
f 32/29/26 30/30/26 34/37/26 36/38/26
f 40/39/27 38/40/27 42/41/27 44/42/27
f 36/38/28 34/37/28 38/40/28 40/39/28
f 35/36/29 36/35/29 40/43/29 39/44/29
f 43/45/30 44/46/30 48/47/30 47/48/30
f 39/44/31 40/43/31 44/46/31 43/45/31
f 37/40/32 39/39/32 43/42/32 41/41/32
f 45/49/33 47/50/33 51/51/33 49/52/33
f 41/41/34 43/42/34 47/50/34 45/49/34
f 44/42/35 42/41/35 46/49/35 48/50/35
f 51/53/36 52/54/36 56/55/36 55/56/36
f 48/50/37 46/49/37 50/52/37 52/51/37
f 47/48/38 48/47/38 52/54/38 51/53/38
f 56/55/39 54/55/39 53/56/39 55/56/39
f 49/52/40 51/51/40 55/57/40 53/58/40
f 52/51/41 50/52/41 54/58/41 56/57/41
f 59/10/42 57/9/42 61/59/42 63/60/42
f 3/1/43 7/4/43 60/10/43 58/9/43
f 7/5/44 5/8/44 59/61/44 60/62/44
f 64/63/45 63/64/45 67/65/45 68/66/45
f 58/9/46 60/10/46 64/60/46 62/59/46
f 60/62/47 59/61/47 63/64/47 64/63/47
f 68/66/48 67/65/48 70/67/48 69/68/48
f 63/60/49 61/59/49 65/69/49 67/70/49
f 62/59/50 64/60/50 68/70/50 66/69/50
f 66/69/51 68/70/51 69/71/51 71/72/51
f 67/70/52 65/69/52 72/72/52 70/71/52
f 71/72/53 69/71/53 73/73/53 75/74/53
f 75/74/54 73/73/54 77/75/54 79/76/54
f 70/71/55 72/72/55 76/74/55 74/73/55
f 69/68/56 70/67/56 74/77/56 73/78/56
f 79/79/57 77/79/57 78/80/57 80/80/57
f 74/73/58 76/74/58 80/76/58 78/75/58
f 73/78/59 74/77/59 78/80/59 77/79/59
f 3/1/60 83/4/60 84/3/60 4/2/60
f 83/5/61 81/8/61 82/7/61 84/6/61
f 81/4/62 1/1/62 2/2/62 82/3/62
f 81/4/63 109/10/63 57/9/63 1/1/63
f 82/7/64 85/12/64 86/11/64 84/6/64
f 85/12/65 87/14/65 88/13/65 86/11/65
f 2/2/66 9/16/66 85/15/66 82/3/66
f 84/3/67 86/15/67 10/16/67 4/2/67
f 13/17/68 17/20/68 89/19/68 87/18/68
f 9/16/69 13/17/69 87/18/69 85/15/69
f 86/15/70 88/18/70 14/17/70 10/16/70
f 89/21/71 91/24/71 92/23/71 90/22/71
f 88/18/72 90/19/72 18/20/72 14/17/72
f 87/14/73 89/21/73 90/22/73 88/13/73
f 17/20/74 21/26/74 91/25/74 89/19/74
f 90/19/75 92/25/75 22/26/75 18/20/75
f 25/27/76 29/30/76 95/29/76 93/28/76
f 21/26/77 25/27/77 93/28/77 91/25/77
f 92/25/78 94/28/78 26/27/78 22/26/78
f 91/24/79 93/32/79 94/31/79 92/23/79
f 95/33/80 97/36/80 98/35/80 96/34/80
f 94/28/81 96/29/81 30/30/81 26/27/81
f 93/32/82 95/33/82 96/34/82 94/31/82
f 33/37/83 37/40/83 99/39/83 97/38/83
f 29/30/84 33/37/84 97/38/84 95/29/84
f 96/29/85 98/38/85 34/37/85 30/30/85
f 100/39/86 102/42/86 42/41/86 38/40/86
f 98/38/87 100/39/87 38/40/87 34/37/87
f 97/36/88 99/44/88 100/43/88 98/35/88
f 101/45/89 103/48/89 104/47/89 102/46/89
f 99/44/90 101/45/90 102/46/90 100/43/90
f 37/40/91 41/41/91 101/42/91 99/39/91
f 45/49/92 49/52/92 105/51/92 103/50/92
f 41/41/93 45/49/93 103/50/93 101/42/93
f 102/42/94 104/50/94 46/49/94 42/41/94
f 105/53/95 107/56/95 108/55/95 106/54/95
f 104/50/96 106/51/96 50/52/96 46/49/96
f 103/48/97 105/53/97 106/54/97 104/47/97
f 108/55/39 107/56/39 53/56/39 54/55/39
f 49/52/98 53/58/98 107/57/98 105/51/98
f 106/51/99 108/57/99 54/58/99 50/52/99
f 109/10/100 111/60/100 61/59/100 57/9/100
f 3/1/101 58/9/101 110/10/101 83/4/101
f 83/5/102 110/62/102 109/61/102 81/8/102
f 112/63/103 114/66/103 113/65/103 111/64/103
f 58/9/104 62/59/104 112/60/104 110/10/104
f 110/62/105 112/63/105 111/64/105 109/61/105
f 114/66/106 115/68/106 116/67/106 113/65/106
f 111/60/49 113/70/49 65/69/49 61/59/49
f 62/59/50 66/69/50 114/70/50 112/60/50
f 66/69/51 71/72/51 115/71/51 114/70/51
f 113/70/52 116/71/52 72/72/52 65/69/52
f 71/72/53 75/74/53 117/73/53 115/71/53
f 75/74/54 79/76/54 119/75/54 117/73/54
f 116/71/55 118/73/55 76/74/55 72/72/55
f 115/68/107 117/78/107 118/77/107 116/67/107
f 79/79/57 80/80/57 120/80/57 119/79/57
f 118/73/58 120/75/58 80/76/58 76/74/58
f 117/78/108 119/79/108 120/80/108 118/77/108
