# Blender 5.1.2
# www.blender.org
mtllib painting9.mtl
o painting9
v 28.934858 3.057719 14.000000
v 28.934858 3.057719 14.860981
v 28.934858 4.811331 14.000000
v 28.934858 4.811331 14.860622
v 28.985548 4.811331 14.000000
v 28.985548 3.057719 14.000000
v 28.985548 3.057719 14.860981
v 28.985548 4.811331 14.860622
v 28.934858 4.811331 15.070467
v 28.985548 3.057719 15.073536
v 28.985548 4.811331 15.070467
v 28.985548 5.001738 14.832849
v 28.985548 5.032250 14.000000
v 28.985548 5.012367 15.037330
v 28.985550 2.856241 14.000000
v 28.985548 2.880787 14.832849
v 28.985548 2.888458 15.045921
v 28.934858 3.057719 14.205370
v 28.934858 4.811331 14.205370
v 28.985548 3.057719 14.205370
v 28.985548 4.811331 14.205370
v 28.985548 4.967422 14.205370
v 28.985548 2.929880 14.205370
v 28.934858 3.057719 14.735363
v 28.985548 3.057719 14.735363
v 28.985548 2.920675 14.735363
v 28.934858 4.811331 14.735363
v 28.985548 4.811331 14.735363
v 28.985548 4.973508 14.735363
v 28.934858 4.381917 14.000000
v 28.934858 4.381917 14.853449
v 28.985548 4.381917 14.000000
v 28.985548 4.381917 14.853449
v 28.985548 4.381917 15.009101
v 28.985548 4.381917 14.205370
v 28.934858 4.381917 14.205370
v 28.985548 4.381917 14.735363
v 28.934858 4.381917 14.735363
v 28.934858 4.228975 14.000000
v 28.985548 4.228975 14.000000
v 28.934858 4.228975 14.205370
v 28.934858 4.228975 14.735363
v 28.934858 4.228975 14.853449
v 28.985548 4.228975 14.853449
v 28.985548 4.228975 15.009101
v 28.985548 4.228975 14.205370
v 28.985548 4.228975 14.735363
v 28.934858 3.804551 14.000000
v 28.985548 3.804551 14.000000
v 28.934858 3.804551 14.205370
v 28.934858 3.804551 14.735363
v 28.934858 3.804551 14.853270
v 28.985548 3.804551 14.853270
v 28.985548 3.804551 15.007566
v 28.985548 3.804551 14.205370
v 28.985548 3.804551 14.735363
v 28.934858 3.649813 14.000000
v 28.985548 3.649813 14.000000
v 28.934858 3.649813 14.205370
v 28.934858 3.649813 14.735363
v 28.934858 3.649813 14.852552
v 28.985548 3.649813 14.852552
v 28.985548 3.649813 15.001431
v 28.985548 3.649813 14.205370
v 28.985548 3.649813 14.735363
v 28.934858 4.016763 14.859725
v 28.985548 4.016763 14.859725
v 28.985548 4.016763 15.062797
v 28.985548 4.016763 14.205370
v 28.985548 4.016763 14.735363
v 28.934858 4.016763 14.000000
v 28.985548 4.016763 14.000000
v 28.934858 4.016763 14.205370
v 28.934858 4.016763 14.735363
v 28.884489 3.057719 14.735363
v 28.884489 3.057719 14.860981
v 28.884489 4.381917 14.853449
v 28.884489 4.811331 14.860622
v 28.884489 3.057719 15.073536
v 28.884489 2.888458 15.045921
v 28.884489 4.967422 14.205370
v 28.884489 5.032250 14.000000
v 28.884489 4.381917 15.009101
v 28.884489 4.811331 15.070467
v 28.884489 4.811331 14.205370
v 28.884489 4.811331 14.000000
v 28.884489 5.012367 15.037330
v 28.884489 5.001738 14.832849
v 28.884489 2.920675 14.735363
v 28.884489 2.880787 14.832849
v 28.884489 2.856241 14.000000
v 28.884489 3.057719 14.000000
v 28.884489 3.057719 14.205370
v 28.884489 4.973508 14.735363
v 28.884489 4.811331 14.735363
v 28.884489 2.929880 14.205370
v 28.884489 4.228975 14.853449
v 28.884489 4.228975 15.009101
v 28.884489 4.016763 14.859725
v 28.884489 4.016763 15.062797
v 28.884489 3.649813 14.852552
v 28.884489 3.804551 14.853270
v 28.884489 3.649813 15.001431
v 28.884489 3.804551 15.007566
v 28.934858 3.057719 13.127159
v 28.934858 4.811331 13.127518
v 28.985550 3.057719 13.127159
v 28.985550 4.811331 13.127518
v 28.934858 4.811331 12.917673
v 28.985550 3.057719 12.914604
v 28.985550 4.811331 12.917673
v 28.985548 5.001738 13.155292
v 28.985550 5.012367 12.950810
v 28.985550 2.880787 13.155292
v 28.985550 2.888458 12.942220
v 28.934858 3.057719 13.794630
v 28.934858 4.811331 13.794630
v 28.985550 3.057719 13.794630
v 28.985548 4.811331 13.794630
v 28.985548 4.967422 13.794630
v 28.985550 2.929880 13.794630
v 28.934858 3.057719 13.252777
v 28.985550 3.057719 13.252777
v 28.985550 2.920675 13.252777
v 28.934858 4.811331 13.252777
v 28.985548 4.811331 13.252777
v 28.985548 4.973508 13.252777
v 28.934858 4.381917 13.134691
v 28.985550 4.381917 13.134691
v 28.985550 4.381917 12.979039
v 28.985548 4.381917 13.794630
v 28.934858 4.381917 13.794630
v 28.985548 4.381917 13.252777
v 28.934858 4.381917 13.252777
v 28.934858 4.228975 13.794630
v 28.934858 4.228975 13.252777
v 28.934858 4.228975 13.134691
v 28.985550 4.228975 13.134691
v 28.985550 4.228975 12.979039
v 28.985548 4.228975 13.794630
v 28.985550 4.228975 13.252777
v 28.934858 3.804551 13.794630
v 28.934858 3.804551 13.252777
v 28.934858 3.804551 13.134871
v 28.985550 3.804551 13.134871
v 28.985550 3.804551 12.980574
v 28.985548 3.804551 13.794630
v 28.985550 3.804551 13.252777
v 28.934858 3.649813 13.794630
v 28.934858 3.649813 13.252777
v 28.934858 3.649813 13.135588
v 28.985550 3.649813 13.135588
v 28.985550 3.649813 12.986710
v 28.985550 3.649813 13.794630
v 28.985550 3.649813 13.252777
v 28.934858 4.016763 13.128415
v 28.985550 4.016763 13.128415
v 28.985550 4.016763 12.925344
v 28.985548 4.016763 13.794630
v 28.985550 4.016763 13.252777
v 28.934858 4.016763 13.794630
v 28.934858 4.016763 13.252777
v 28.884489 3.057719 13.252777
v 28.884489 3.057719 13.127159
v 28.884489 4.381917 13.134691
v 28.884489 4.811331 13.127518
v 28.884489 3.057719 12.914604
v 28.884489 2.888458 12.942220
v 28.884489 4.967422 13.794630
v 28.884489 4.381917 12.979039
v 28.884489 4.811331 12.917673
v 28.884489 4.811331 13.794630
v 28.884489 5.012367 12.950810
v 28.884489 5.001738 13.155292
v 28.884489 2.920675 13.252777
v 28.884489 2.880787 13.155292
v 28.884489 3.057719 13.794630
v 28.884489 4.973508 13.252777
v 28.884489 4.811331 13.252777
v 28.884489 2.929880 13.794630
v 28.884489 4.228975 13.134691
v 28.884489 4.228975 12.979039
v 28.884489 4.016763 13.128415
v 28.884489 4.016763 12.925344
v 28.884489 3.649813 13.135588
v 28.884489 3.804551 13.134871
v 28.884489 3.649813 12.986710
v 28.884489 3.804551 12.980574
vn -1.0000 -0.0000 -0.0000
vn 1.0000 -0.0000 -0.0000
vn -0.0000 -0.0000 1.0000
vn -0.0000 0.9987 -0.0519
vn -0.0000 -0.1415 0.9899
vn -0.0000 -0.0396 0.9992
vn -0.0000 0.1626 0.9867
vn -0.0000 -0.9255 -0.3787
vn -0.0000 0.9999 -0.0115
vn -0.0000 -0.9994 0.0360
vn -0.0000 0.9536 0.3010
vn -0.0000 -0.9998 -0.0174
vn -0.0000 -0.9413 0.3375
vn -0.0000 -0.0296 -0.9996
vn -0.0000 -0.2519 0.9678
vn -0.0000 0.0304 -0.9995
vn -0.0000 0.9605 -0.2781
vn -0.0000 0.2453 0.9694
vn -0.0000 0.1209 0.9927
vn -0.0000 -1.0000 -0.0000
vn -0.0000 -0.0142 -0.9999
vn -0.0000 1.0000 -0.0000
vn -0.0000 -0.0000 -1.0000
vn -0.0000 0.0046 -1.0000
vn -0.0000 0.0167 -0.9999
vn -0.0000 -0.1610 0.9870
vn -0.0000 0.9987 0.0519
vn -0.0000 -0.1415 -0.9899
vn -0.0000 -0.0396 -0.9992
vn -0.0000 0.1626 -0.9867
vn -0.0000 -0.9255 0.3787
vn -0.0000 0.9999 0.0112
vn -0.0000 -0.9994 -0.0360
vn -0.0000 0.9536 -0.3010
vn -0.0000 -0.9999 0.0170
vn -0.0000 -0.9413 -0.3375
vn -0.0000 -0.0296 0.9996
vn -0.0000 -0.2519 -0.9678
vn -0.0000 0.0304 0.9995
vn -0.0000 0.9605 0.2781
vn -0.0000 0.2453 -0.9694
vn -0.0000 0.1209 -0.9927
vn -0.0000 -0.0142 0.9999
vn -0.0000 0.0046 1.0000
vn -0.0000 0.0167 0.9999
vn -0.0000 -0.1610 -0.9870
vt 0.954149 0.748712
vt 0.986771 0.748712
vt 0.988753 0.985970
vt 0.954149 0.985970
vt 0.912395 0.894459
vt 0.912395 0.929219
vt 0.924596 0.929219
vt 0.923897 0.894459
vt 0.902709 0.729730
vt 0.902709 0.707940
vt 0.882706 0.695387
vt 0.882706 0.729730
vt 0.382152 0.585111
vt 0.382152 0.643865
vt 0.359967 0.643865
vt 0.359967 0.585111
vt 0.384484 0.834850
vt 0.338946 0.834850
vt 0.338946 0.795465
vt 0.384484 0.795465
vt 0.923810 0.769670
vt 0.938311 0.769670
vt 0.945334 0.729730
vt 0.924631 0.729730
vt 0.382152 0.722204
vt 0.371025 0.722204
vt 0.359967 0.722204
vt 0.921891 0.961674
vt 0.941808 0.963486
vt 0.945035 0.929219
vt 0.382152 0.362622
vt 0.382152 0.422065
vt 0.359967 0.422065
vt 0.359967 0.362622
vt 0.382152 0.799433
vt 0.359967 0.799433
vt 0.912395 0.956862
vt 0.310492 0.213563
vt 0.310492 0.180212
vt 0.328876 0.180212
vt 0.328876 0.213563
vt 0.317236 0.795465
vt 0.317236 0.834850
vt 0.295089 0.834850
vt 0.295089 0.795465
vt 0.369057 0.180212
vt 0.369057 0.213563
vt 0.942644 0.700879
vt 0.921891 0.699571
vt 0.249353 0.834850
vt 0.249353 0.795465
vt 0.291739 0.180212
vt 0.291739 0.213563
vt 0.882706 0.929219
vt 0.882706 0.966875
vt 0.902709 0.955825
vt 0.902709 0.929219
vt 0.253011 0.180212
vt 0.253011 0.213563
vt 0.363415 0.497913
vt 0.378213 0.497913
vt 0.378213 0.607019
vt 0.363415 0.607019
vt 0.912395 0.729730
vt 0.912395 0.706371
vt 0.882706 0.894459
vt 0.902709 0.894459
vt 0.750999 0.748712
vt 0.807734 0.748712
vt 0.807734 0.985970
vt 0.750999 0.985970
vt 0.382152 0.503588
vt 0.359967 0.503588
vt 0.363415 0.388808
vt 0.378213 0.388808
vt 0.807734 0.664208
vt 0.954149 0.664208
vt 0.902709 0.868390
vt 0.912395 0.868390
vt 0.750999 0.664208
vt 0.882706 0.868390
vt 0.939058 0.894459
vt 0.923897 0.868390
vt 0.986771 0.664208
vt 0.954149 0.546958
vt 0.988505 0.546958
vt 0.912395 0.832218
vt 0.924508 0.832218
vt 0.882706 0.832218
vt 0.902709 0.832218
vt 0.750999 0.546958
vt 0.807734 0.546958
vt 0.939058 0.868390
vt 0.807734 0.344212
vt 0.954149 0.344212
vt 0.954149 0.429707
vt 0.807734 0.429707
vt 0.902709 0.769670
vt 0.902709 0.796045
vt 0.912395 0.796045
vt 0.912395 0.769670
vt 0.750999 0.344212
vt 0.750999 0.429707
vt 0.882706 0.769670
vt 0.882706 0.796045
vt 0.359967 0.272607
vt 0.382152 0.272607
vt 0.923880 0.796045
vt 0.986524 0.344212
vt 0.986722 0.429707
vt 0.944288 0.832218
vt 0.938909 0.796045
vt 0.954149 0.017070
vt 0.988852 0.017070
vt 0.318223 0.801387
vt 0.318223 0.828355
vt 0.255392 0.828355
vt 0.255392 0.801387
vt 0.750999 0.017070
vt 0.807734 0.017070
vt 0.363415 0.188781
vt 0.378213 0.188781
vt 0.378213 0.309252
vt 0.363415 0.309252
vt 0.360177 0.206487
vt 0.356604 0.161542
vt 0.383666 0.163491
vt 0.387174 0.206487
vt 0.357990 0.618194
vt 0.380690 0.618194
vt 0.389640 0.743444
vt 0.359036 0.743444
vt 0.283589 0.800290
vt 0.283589 0.840579
vt 0.257085 0.857311
vt 0.257085 0.800290
vt 0.395234 0.800290
vt 0.390957 0.852179
vt 0.364568 0.849436
vt 0.368152 0.800290
vt 0.344222 0.206487
vt 0.344222 0.171675
vt 0.250823 0.206487
vt 0.250823 0.155307
vt 0.276908 0.174013
vt 0.276908 0.206487
vt 0.351987 0.800290
vt 0.351987 0.842149
vt 0.357990 0.573584
vt 0.380690 0.573584
vt 0.358905 0.511687
vt 0.388521 0.511687
vt 0.357859 0.404657
vt 0.379571 0.404657
vt 0.380466 0.449790
vt 0.357964 0.449790
vt 0.359088 0.231957
vt 0.390087 0.231957
vt 0.248964 0.213072
vt 0.248964 0.185247
vt 0.313793 0.185247
vt 0.313793 0.213072
vt 0.386970 0.801387
vt 0.386970 0.828355
vt 0.348648 0.828355
vt 0.348648 0.801387
vt 0.378213 0.685652
vt 0.363415 0.685652
vt 0.345185 0.213072
vt 0.345185 0.185247
vt 0.384838 0.185247
vt 0.384838 0.213072
vt 0.378213 0.790496
vt 0.363415 0.790496
vt 0.355728 0.741891
vt 0.405002 0.741891
vt 0.382152 0.207584
vt 0.359967 0.207584
vt 0.544572 0.748712
vt 0.544572 0.985970
vt 0.509968 0.985970
vt 0.511949 0.748712
vt 0.853016 0.894459
vt 0.841514 0.894459
vt 0.840816 0.929219
vt 0.853016 0.929219
vt 0.862702 0.729730
vt 0.862702 0.707940
vt 0.122793 0.573666
vt 0.142669 0.573666
vt 0.142669 0.626306
vt 0.122793 0.626306
vt 0.114222 0.834850
vt 0.114222 0.795465
vt 0.159760 0.795465
vt 0.159760 0.834850
vt 0.841602 0.769670
vt 0.840781 0.729730
vt 0.820078 0.729730
vt 0.827101 0.769670
vt 0.142669 0.696493
vt 0.132763 0.696493
vt 0.122793 0.696493
vt 0.820376 0.929219
vt 0.823604 0.963486
vt 0.843521 0.961674
vt 0.122793 0.374330
vt 0.142669 0.374330
vt 0.142669 0.427588
vt 0.122793 0.427588
vt 0.142669 0.765686
vt 0.122793 0.765686
vt 0.853016 0.956862
vt 0.195529 0.213563
vt 0.177145 0.213563
vt 0.177145 0.180212
vt 0.195529 0.180212
vt 0.181470 0.795465
vt 0.203617 0.795465
vt 0.203617 0.834850
vt 0.181470 0.834850
vt 0.136964 0.213563
vt 0.136964 0.180212
vt 0.843521 0.699571
vt 0.822767 0.700879
vt 0.214282 0.180212
vt 0.214282 0.213563
vt 0.862702 0.929219
vt 0.862702 0.955825
vt 0.141945 0.496022
vt 0.141945 0.612752
vt 0.126113 0.612752
vt 0.126113 0.496022
vt 0.853016 0.729730
vt 0.853016 0.706371
vt 0.862702 0.894459
vt 0.694263 0.985970
vt 0.694263 0.748712
vt 0.122793 0.500627
vt 0.142669 0.500627
vt 0.141945 0.379292
vt 0.126113 0.379292
vt 0.694263 0.664208
vt 0.544572 0.664208
vt 0.862702 0.868390
vt 0.853016 0.868390
vt 0.826354 0.894459
vt 0.841514 0.868390
vt 0.511949 0.664208
vt 0.544572 0.546958
vt 0.510215 0.546958
vt 0.853016 0.832218
vt 0.840903 0.832218
vt 0.862702 0.832218
vt 0.694263 0.546958
vt 0.826354 0.868390
vt 0.694263 0.344212
vt 0.694263 0.429707
vt 0.544572 0.429707
vt 0.544572 0.344212
vt 0.862702 0.769670
vt 0.853016 0.769670
vt 0.853016 0.796045
vt 0.862702 0.796045
vt 0.122793 0.293682
vt 0.142669 0.293682
vt 0.841532 0.796045
vt 0.511998 0.429707
vt 0.512197 0.344212
vt 0.826503 0.796045
vt 0.821124 0.832218
vt 0.544572 0.017070
vt 0.509869 0.017070
vt 0.192561 0.801387
vt 0.192561 0.828355
vt 0.694263 0.017070
vt 0.141945 0.165287
vt 0.141945 0.294176
vt 0.126113 0.294176
vt 0.126113 0.165287
vt 0.139963 0.206487
vt 0.112966 0.206487
vt 0.116473 0.163491
vt 0.143536 0.161542
vt 0.146501 0.630759
vt 0.145315 0.772793
vt 0.110610 0.772793
vt 0.120759 0.630759
vt 0.230581 0.800290
vt 0.230581 0.840579
vt 0.117406 0.800290
vt 0.144487 0.800290
vt 0.148072 0.849436
vt 0.121683 0.852179
vt 0.155918 0.206487
vt 0.155918 0.171675
vt 0.224738 0.206487
vt 0.224738 0.174013
vt 0.160653 0.800290
vt 0.160653 0.842149
vt 0.146501 0.580172
vt 0.120759 0.580172
vt 0.145463 0.509980
vt 0.111879 0.509980
vt 0.146649 0.388607
vt 0.146531 0.439788
vt 0.121013 0.439788
vt 0.122028 0.388607
vt 0.145256 0.192765
vt 0.110104 0.192765
vt 0.184135 0.213072
vt 0.184135 0.185247
vt 0.123814 0.801387
vt 0.162136 0.801387
vt 0.162136 0.828355
vt 0.123814 0.828355
vt 0.141945 0.696881
vt 0.126113 0.696881
vt 0.152743 0.213072
vt 0.113090 0.213072
vt 0.113090 0.185247
vt 0.152743 0.185247
vt 0.141945 0.809052
vt 0.126113 0.809052
vt 0.146063 0.694489
vt 0.106503 0.694489
vt 0.105124 0.707637
vt 0.147379 0.707637
vt 0.122793 0.235426
vt 0.142669 0.235426
s 0
usemtl painting9
f 38/1/1 31/2/1 4/3/1 27/4/1
f 37/5/2 28/6/2 8/7/2 33/8/2
f 20/9/2 23/10/2 15/11/2 6/12/2
f 45/13/3 34/14/3 83/15/3 98/16/3
f 14/17/4 12/18/4 88/19/4 87/20/4
f 62/21/2 63/22/2 10/23/2 7/24/2
f 34/14/5 11/25/5 9/26/5 84/27/5 83/15/5
f 8/7/2 12/28/2 14/29/2 11/30/2
f 63/31/6 54/32/6 104/33/6 103/34/6
f 9/26/7 11/25/7 14/35/7 87/36/7 84/27/7
f 28/6/2 29/37/2 12/28/2 8/7/2
f 89/38/8 26/39/8 16/40/8 90/41/8
f 94/42/9 29/43/9 22/44/9 81/45/9
f 16/40/10 17/46/10 80/47/10 90/41/10
f 10/23/2 17/48/2 16/49/2 7/24/2
f 13/50/11 82/51/11 81/45/11 22/44/11
f 23/52/12 26/39/12 89/38/12 96/53/12
f 5/54/2 13/55/2 22/56/2 21/57/2
f 15/58/13 23/52/13 96/53/13 91/59/13
f 66/60/14 99/61/14 97/62/14 43/63/14
f 25/64/2 26/65/2 23/10/2 20/9/2
f 32/66/2 5/54/2 21/57/2 35/67/2
f 30/68/1 36/69/1 19/70/1 3/71/1
f 7/24/2 16/49/2 26/65/2 25/64/2
f 68/72/15 100/73/15 104/33/15 54/32/15
f 52/74/16 102/75/16 99/61/16 66/60/16
f 94/42/17 88/19/17 12/18/17 29/43/17
f 21/57/2 22/56/2 29/37/2 28/6/2
f 35/67/2 21/57/2 28/6/2 37/5/2
f 36/69/1 38/1/1 27/4/1 19/70/1
f 41/76/1 42/77/1 38/1/1 36/69/1
f 46/78/2 35/67/2 37/5/2 47/79/2
f 39/80/1 41/76/1 36/69/1 30/68/1
f 40/81/2 32/66/2 35/67/2 46/78/2
f 8/7/2 11/30/2 34/82/2 33/8/2
f 45/13/18 98/16/18 100/73/18 68/72/18
f 47/79/2 37/5/2 33/8/2 44/83/2
f 42/77/1 43/84/1 31/2/1 38/1/1
f 74/85/1 66/86/1 43/84/1 42/77/1
f 70/87/2 47/79/2 44/83/2 67/88/2
f 72/89/2 40/81/2 46/78/2 69/90/2
f 71/91/1 73/92/1 41/76/1 39/80/1
f 69/90/2 46/78/2 47/79/2 70/87/2
f 73/92/1 74/85/1 42/77/1 41/76/1
f 33/8/2 34/82/2 45/93/2 44/83/2
f 59/94/1 60/95/1 51/96/1 50/97/1
f 64/98/2 55/99/2 56/100/2 65/101/2
f 57/102/1 59/94/1 50/97/1 48/103/1
f 58/104/2 49/105/2 55/99/2 64/98/2
f 63/31/19 103/34/19 79/106/19 10/107/19
f 65/101/2 56/100/2 53/108/2 62/21/2
f 60/95/1 61/109/1 52/110/1 51/96/1
f 67/88/2 68/111/2 54/112/2 53/108/2
f 24/113/1 2/114/1 61/109/1 60/95/1
f 25/64/2 65/101/2 62/21/2 7/24/2
f 19/115/20 85/116/20 86/117/20 3/118/20
f 6/12/2 58/104/2 64/98/2 20/9/2
f 1/119/1 18/120/1 59/94/1 57/102/1
f 20/9/2 64/98/2 65/101/2 25/64/2
f 18/120/1 24/113/1 60/95/1 59/94/1
f 53/108/2 54/112/2 63/22/2 62/21/2
f 44/83/2 45/93/2 68/111/2 67/88/2
f 50/97/1 51/96/1 74/85/1 73/92/1
f 55/99/2 69/90/2 70/87/2 56/100/2
f 48/103/1 50/97/1 73/92/1 71/91/1
f 49/105/2 72/89/2 69/90/2 55/99/2
f 2/121/21 76/122/21 101/123/21 61/124/21
f 56/100/2 70/87/2 67/88/2 53/108/2
f 51/96/1 52/110/1 66/86/1 74/85/1
f 76/125/1 90/126/1 80/127/1 79/128/1
f 77/129/1 83/130/1 84/131/1 78/132/1
f 85/133/1 81/134/1 82/135/1 86/136/1
f 84/137/1 87/138/1 88/139/1 78/140/1
f 75/141/1 89/142/1 90/126/1 76/125/1
f 92/143/1 91/144/1 96/145/1 93/146/1
f 95/147/1 94/148/1 81/134/1 85/133/1
f 78/140/1 88/139/1 94/148/1 95/147/1
f 93/146/1 96/145/1 89/142/1 75/141/1
f 97/149/1 98/150/1 83/130/1 77/129/1
f 99/151/1 100/152/1 98/150/1 97/149/1
f 101/153/1 103/154/1 104/155/1 102/156/1
f 76/157/1 79/158/1 103/154/1 101/153/1
f 102/156/1 104/155/1 100/152/1 99/151/1
f 1/159/22 92/160/22 93/161/22 18/162/22
f 4/163/20 78/164/20 95/165/20 27/166/20
f 43/63/23 97/62/23 77/167/23 31/168/23
f 61/124/24 101/123/24 102/75/24 52/74/24
f 24/169/22 75/170/22 76/171/22 2/172/22
f 31/168/25 77/167/25 78/173/25 4/174/25
f 27/166/20 95/165/20 85/116/20 19/115/20
f 4/175/22 78/175/22 84/176/22 9/176/22
f 18/162/22 93/161/22 75/170/22 24/169/22
f 17/177/26 10/107/26 79/106/26 80/178/26
f 134/179/1 125/180/1 106/181/1 128/182/1
f 133/183/2 129/184/2 108/185/2 126/186/2
f 118/187/2 6/12/2 15/11/2 121/188/2
f 139/189/23 182/190/23 170/191/23 130/192/23
f 113/193/27 173/194/27 174/195/27 112/196/27
f 152/197/2 107/198/2 110/199/2 153/200/2
f 130/192/28 170/191/28 171/201/28 109/202/28 111/203/28
f 108/185/2 111/204/2 113/205/2 112/206/2
f 153/207/29 187/208/29 188/209/29 146/210/29
f 109/202/30 171/201/30 173/211/30 113/212/30 111/203/30
f 126/186/2 108/185/2 112/206/2 127/213/2
f 175/214/31 176/215/31 114/216/31 124/217/31
f 178/218/32 169/219/32 120/220/32 127/221/32
f 114/216/33 176/215/33 168/222/33 115/223/33
f 110/199/2 107/198/2 114/224/2 115/225/2
f 13/50/34 120/220/34 169/219/34 82/51/34
f 121/226/35 180/227/35 175/214/35 124/217/35
f 5/54/2 119/228/2 120/229/2 13/55/2
f 15/58/36 91/59/36 180/227/36 121/226/36
f 156/230/37 137/231/37 181/232/37 183/233/37
f 123/234/2 118/187/2 121/188/2 124/235/2
f 32/66/2 131/236/2 119/228/2 5/54/2
f 30/68/1 3/71/1 117/237/1 132/238/1
f 107/198/2 123/234/2 124/235/2 114/224/2
f 158/239/38 146/210/38 188/209/38 184/240/38
f 144/241/39 156/230/39 183/233/39 186/242/39
f 178/218/40 127/221/40 112/196/40 174/195/40
f 119/228/2 126/186/2 127/213/2 120/229/2
f 131/236/2 133/183/2 126/186/2 119/228/2
f 132/238/1 117/237/1 125/180/1 134/179/1
f 135/243/1 132/238/1 134/179/1 136/244/1
f 140/245/2 141/246/2 133/183/2 131/236/2
f 39/80/1 30/68/1 132/238/1 135/243/1
f 40/81/2 140/245/2 131/236/2 32/66/2
f 108/185/2 129/184/2 130/247/2 111/204/2
f 139/189/41 158/239/41 184/240/41 182/190/41
f 141/246/2 138/248/2 129/184/2 133/183/2
f 136/244/1 134/179/1 128/182/1 137/249/1
f 162/250/1 136/244/1 137/249/1 156/251/1
f 160/252/2 157/253/2 138/248/2 141/246/2
f 72/89/2 159/254/2 140/245/2 40/81/2
f 71/91/1 39/80/1 135/243/1 161/255/1
f 159/254/2 160/252/2 141/246/2 140/245/2
f 161/255/1 135/243/1 136/244/1 162/250/1
f 129/184/2 138/248/2 139/256/2 130/247/2
f 149/257/1 142/258/1 143/259/1 150/260/1
f 154/261/2 155/262/2 148/263/2 147/264/2
f 57/102/1 48/103/1 142/258/1 149/257/1
f 58/104/2 154/261/2 147/264/2 49/105/2
f 153/207/42 110/265/42 167/266/42 187/208/42
f 155/262/2 152/197/2 145/267/2 148/263/2
f 150/260/1 143/259/1 144/268/1 151/269/1
f 157/253/2 145/267/2 146/270/2 158/271/2
f 122/272/1 150/260/1 151/269/1 105/273/1
f 123/234/2 107/198/2 152/197/2 155/262/2
f 117/274/20 3/118/20 86/117/20 172/275/20
f 6/12/2 118/187/2 154/261/2 58/104/2
f 1/119/1 57/102/1 149/257/1 116/276/1
f 118/187/2 123/234/2 155/262/2 154/261/2
f 116/276/1 149/257/1 150/260/1 122/272/1
f 145/267/2 152/197/2 153/200/2 146/270/2
f 138/248/2 157/253/2 158/271/2 139/256/2
f 142/258/1 161/255/1 162/250/1 143/259/1
f 147/264/2 148/263/2 160/252/2 159/254/2
f 48/103/1 71/91/1 161/255/1 142/258/1
f 49/105/2 147/264/2 159/254/2 72/89/2
f 105/277/43 151/278/43 185/279/43 164/280/43
f 148/263/2 145/267/2 157/253/2 160/252/2
f 143/259/1 162/250/1 156/251/1 144/268/1
f 164/281/1 167/282/1 168/283/1 176/284/1
f 165/285/1 166/286/1 171/287/1 170/288/1
f 172/289/1 86/136/1 82/135/1 169/290/1
f 171/291/1 166/292/1 174/293/1 173/294/1
f 163/295/1 164/281/1 176/284/1 175/296/1
f 92/143/1 177/297/1 180/298/1 91/144/1
f 179/299/1 172/289/1 169/290/1 178/300/1
f 166/292/1 179/299/1 178/300/1 174/293/1
f 177/297/1 163/295/1 175/296/1 180/298/1
f 181/301/1 165/285/1 170/288/1 182/302/1
f 183/303/1 181/301/1 182/302/1 184/304/1
f 185/305/1 186/306/1 188/307/1 187/308/1
f 164/309/1 185/305/1 187/308/1 167/310/1
f 186/306/1 183/303/1 184/304/1 188/307/1
f 1/159/22 116/311/22 177/312/22 92/160/22
f 106/313/20 125/314/20 179/315/20 166/316/20
f 137/231/3 128/317/3 165/318/3 181/232/3
f 151/278/44 144/241/44 186/242/44 185/279/44
f 122/319/22 105/320/22 164/321/22 163/322/22
f 128/317/45 106/323/45 166/324/45 165/318/45
f 125/314/20 117/274/20 172/275/20 179/315/20
f 106/325/22 109/326/22 171/327/22 166/328/22
f 116/311/22 122/319/22 163/322/22 177/312/22
f 115/329/46 168/330/46 167/266/46 110/265/46
