# Blender 5.1.2
# www.blender.org
mtllib painting5.mtl
o painting5
v 18.941086 2.415496 21.000000
v 18.941086 2.415496 21.430435
v 18.941086 3.585842 21.000000
v 18.941086 3.585842 21.430077
v 18.991776 3.585842 21.000000
v 18.991776 2.415496 21.000000
v 18.991776 2.415496 21.430435
v 18.991776 3.585842 21.430077
v 18.941086 3.585842 21.639921
v 18.991776 2.415496 21.642990
v 18.991776 3.585842 21.639921
v 18.991776 3.776248 21.402302
v 18.991776 3.806761 21.000000
v 18.991776 3.786878 21.606783
v 18.991777 2.214017 21.000000
v 18.991776 2.238564 21.402302
v 18.991776 2.246235 21.615376
v 18.941086 2.415496 21.205370
v 18.941086 3.585842 21.205370
v 18.991776 2.415496 21.205370
v 18.991776 3.585842 21.205370
v 18.991776 3.741933 21.205370
v 18.991776 2.287657 21.205370
v 18.941086 2.415496 21.304817
v 18.991776 2.415496 21.304817
v 18.991776 2.278452 21.304817
v 18.941086 3.585842 21.304817
v 18.991776 3.585842 21.304817
v 18.991776 3.748019 21.304817
v 18.941086 3.381918 21.000000
v 18.941086 3.381918 21.422903
v 18.991776 3.381918 21.000000
v 18.991776 3.381918 21.422903
v 18.991776 3.381918 21.578556
v 18.991776 3.381918 21.205370
v 18.941086 3.381918 21.205370
v 18.991776 3.381918 21.304817
v 18.941086 3.381918 21.304817
v 18.941086 3.228975 21.000000
v 18.991776 3.228975 21.000000
v 18.941086 3.228975 21.205370
v 18.941086 3.228975 21.304817
v 18.941086 3.228975 21.422903
v 18.991776 3.228975 21.422903
v 18.991776 3.228975 21.578556
v 18.991776 3.228975 21.205370
v 18.991776 3.228975 21.304817
v 18.941086 2.804551 21.000000
v 18.991776 2.804551 21.000000
v 18.941086 2.804551 21.205370
v 18.941086 2.804551 21.304817
v 18.941086 2.804551 21.422724
v 18.991776 2.804551 21.422724
v 18.991776 2.804551 21.577021
v 18.991776 2.804551 21.205370
v 18.991776 2.804551 21.304817
v 18.941086 2.649813 21.000000
v 18.991776 2.649813 21.000000
v 18.941086 2.649813 21.205370
v 18.941086 2.649813 21.304817
v 18.941086 2.649813 21.422007
v 18.991776 2.649813 21.422007
v 18.991776 2.649813 21.570885
v 18.991776 2.649813 21.205370
v 18.991776 2.649813 21.304817
v 18.941086 3.016763 21.429180
v 18.991776 3.016763 21.429180
v 18.991776 3.016763 21.632252
v 18.991776 3.016763 21.205370
v 18.991776 3.016763 21.304817
v 18.941086 3.016763 21.000000
v 18.991776 3.016763 21.000000
v 18.941086 3.016763 21.205370
v 18.941086 3.016763 21.304817
v 18.890717 2.415496 21.304817
v 18.890717 2.415496 21.430435
v 18.890717 3.381918 21.422903
v 18.890717 3.585842 21.430077
v 18.890717 2.415496 21.642990
v 18.890717 2.246235 21.615376
v 18.890717 3.741933 21.205370
v 18.890717 3.806761 21.000000
v 18.890717 3.381918 21.578556
v 18.890717 3.585842 21.639921
v 18.890717 3.585842 21.205370
v 18.890717 3.585842 21.000000
v 18.890717 3.786878 21.606783
v 18.890717 3.776248 21.402302
v 18.890717 2.278452 21.304817
v 18.890717 2.238564 21.402302
v 18.890717 2.214017 21.000000
v 18.890717 2.415496 21.000000
v 18.890717 2.415496 21.205370
v 18.890717 3.748019 21.304817
v 18.890717 3.585842 21.304817
v 18.890717 2.287657 21.205370
v 18.890717 3.228975 21.422903
v 18.890717 3.228975 21.578556
v 18.890717 3.016763 21.429180
v 18.890717 3.016763 21.632252
v 18.890717 2.649813 21.422007
v 18.890717 2.804551 21.422724
v 18.890717 2.649813 21.570885
v 18.890717 2.804551 21.577021
v 18.941086 2.415496 20.569565
v 18.941086 3.585842 20.569923
v 18.991777 2.415496 20.569565
v 18.991776 3.585842 20.569923
v 18.941086 3.585842 20.360079
v 18.991777 2.415496 20.357010
v 18.991776 3.585842 20.360079
v 18.991776 3.776248 20.597698
v 18.991776 3.786878 20.393217
v 18.991777 2.238564 20.597698
v 18.991777 2.246235 20.384624
v 18.941086 2.415496 20.794630
v 18.941086 3.585842 20.794630
v 18.991777 2.415496 20.794630
v 18.991776 3.585842 20.794630
v 18.991776 3.741933 20.794630
v 18.991777 2.287657 20.794630
v 18.941086 2.415496 20.695183
v 18.991777 2.415496 20.695183
v 18.991777 2.278452 20.695183
v 18.941086 3.585842 20.695183
v 18.991776 3.585842 20.695183
v 18.991776 3.748019 20.695183
v 18.941086 3.381918 20.577097
v 18.991776 3.381918 20.577097
v 18.991776 3.381918 20.421444
v 18.991776 3.381918 20.794630
v 18.941086 3.381918 20.794630
v 18.991776 3.381918 20.695183
v 18.941086 3.381918 20.695183
v 18.941086 3.228975 20.794630
v 18.941086 3.228975 20.695183
v 18.941086 3.228975 20.577097
v 18.991776 3.228975 20.577097
v 18.991776 3.228975 20.421444
v 18.991776 3.228975 20.794630
v 18.991776 3.228975 20.695183
v 18.941086 2.804551 20.794630
v 18.941086 2.804551 20.695183
v 18.941086 2.804551 20.577276
v 18.991777 2.804551 20.577276
v 18.991777 2.804551 20.422979
v 18.991776 2.804551 20.794630
v 18.991776 2.804551 20.695183
v 18.941086 2.649813 20.794630
v 18.941086 2.649813 20.695183
v 18.941086 2.649813 20.577993
v 18.991777 2.649813 20.577993
v 18.991777 2.649813 20.429115
v 18.991777 2.649813 20.794630
v 18.991777 2.649813 20.695183
v 18.941086 3.016763 20.570820
v 18.991776 3.016763 20.570820
v 18.991777 3.016763 20.367748
v 18.991776 3.016763 20.794630
v 18.991776 3.016763 20.695183
v 18.941086 3.016763 20.794630
v 18.941086 3.016763 20.695183
v 18.890717 2.415496 20.695183
v 18.890717 2.415496 20.569565
v 18.890717 3.381918 20.577097
v 18.890717 3.585842 20.569923
v 18.890717 2.415496 20.357010
v 18.890717 2.246235 20.384624
v 18.890717 3.741933 20.794630
v 18.890717 3.381918 20.421444
v 18.890717 3.585842 20.360079
v 18.890717 3.585842 20.794630
v 18.890717 3.786878 20.393217
v 18.890717 3.776248 20.597698
v 18.890717 2.278452 20.695183
v 18.890717 2.238564 20.597698
v 18.890717 2.415496 20.794630
v 18.890717 3.748019 20.695183
v 18.890717 3.585842 20.695183
v 18.890717 2.287657 20.794630
v 18.890717 3.228975 20.577097
v 18.890717 3.228975 20.421444
v 18.890717 3.016763 20.570820
v 18.890717 3.016763 20.367748
v 18.890717 2.649813 20.577993
v 18.890717 2.804551 20.577276
v 18.890717 2.649813 20.429115
v 18.890717 2.804551 20.422979
vn -1.0000 -0.0000 -0.0000
vn 1.0000 -0.0000 -0.0000
vn -0.0000 -0.0000 1.0000
vn -0.0000 0.9987 -0.0519
vn -0.0000 -0.2882 0.9576
vn -0.0000 -0.0396 0.9992
vn -0.0000 0.1626 0.9867
vn -0.0000 -0.9255 -0.3787
vn -0.0000 0.9981 -0.0611
vn -0.0000 -0.9994 0.0360
vn -0.0000 0.9536 0.3010
vn -0.0000 -0.9957 -0.0922
vn -0.0000 -0.9413 0.3375
vn -0.0000 -0.0296 -0.9996
vn -0.0000 -0.2519 0.9678
vn -0.0000 0.0304 -0.9995
vn -0.0000 0.9605 -0.2781
vn -0.0000 0.2453 0.9694
vn -0.0000 0.2941 0.9558
vn -0.0000 -1.0000 -0.0000
vn -0.0000 -0.0359 -0.9994
vn -0.0000 1.0000 -0.0000
vn -0.0000 -0.0000 -1.0000
vn -0.0000 0.0046 -1.0000
vn -0.0000 0.0352 -0.9994
vn -0.0000 -0.1610 0.9870
vn -0.0000 0.9987 0.0519
vn -0.0000 -0.2882 -0.9576
vn -0.0000 -0.0396 -0.9992
vn -0.0000 0.1626 -0.9867
vn -0.0000 -0.9255 0.3787
vn -0.0000 0.9981 0.0611
vn -0.0000 -0.9994 -0.0360
vn -0.0000 0.9536 -0.3010
vn -0.0000 -0.9957 0.0922
vn -0.0000 -0.9413 -0.3375
vn -0.0000 -0.0296 0.9996
vn -0.0000 -0.2519 -0.9678
vn -0.0000 0.0304 0.9995
vn -0.0000 0.9605 0.2781
vn -0.0000 0.2453 -0.9694
vn -0.0000 0.2941 -0.9558
vn -0.0000 -0.0359 0.9994
vn -0.0000 0.0046 1.0000
vn -0.0000 0.0352 0.9994
vn -0.0000 -0.1610 -0.9870
vt 0.931481 0.818078
vt 0.988043 0.818078
vt 0.991478 0.989011
vt 0.931481 0.989011
vt 0.365635 0.673951
vt 0.365635 0.769021
vt 0.399004 0.769021
vt 0.397094 0.673951
vt 0.339142 0.223398
vt 0.339142 0.163799
vt 0.284430 0.129468
vt 0.284430 0.223398
vt 0.432352 0.590032
vt 0.432352 0.648787
vt 0.410167 0.648787
vt 0.410167 0.590032
vt 0.423857 0.831897
vt 0.378319 0.831897
vt 0.378319 0.792512
vt 0.423857 0.792512
vt 0.396855 0.332639
vt 0.436516 0.332639
vt 0.455725 0.223398
vt 0.399100 0.223398
vt 0.432352 0.727125
vt 0.421225 0.727125
vt 0.410167 0.727125
vt 0.391605 0.857790
vt 0.446080 0.862746
vt 0.454908 0.769021
vt 0.432352 0.367543
vt 0.432352 0.426987
vt 0.410167 0.426987
vt 0.410167 0.367543
vt 0.432352 0.804355
vt 0.410167 0.804355
vt 0.365635 0.844630
vt 0.359272 0.216593
vt 0.359272 0.175214
vt 0.382081 0.175214
vt 0.382081 0.216593
vt 0.356609 0.792512
vt 0.356609 0.831897
vt 0.334462 0.831897
vt 0.334462 0.792512
vt 0.431934 0.175214
vt 0.431934 0.216593
vt 0.448369 0.144488
vt 0.391605 0.140911
vt 0.288726 0.831897
vt 0.288726 0.792512
vt 0.336005 0.175214
vt 0.336005 0.216593
vt 0.284430 0.769021
vt 0.284430 0.872015
vt 0.339142 0.841792
vt 0.339142 0.769021
vt 0.287954 0.175214
vt 0.287954 0.216593
vt 0.414107 0.502835
vt 0.428905 0.502835
vt 0.428905 0.611940
vt 0.414107 0.611940
vt 0.365635 0.223398
vt 0.365635 0.159508
vt 0.284430 0.673951
vt 0.339142 0.673951
vt 0.785480 0.818078
vt 0.883848 0.818078
vt 0.883848 0.989011
vt 0.785480 0.989011
vt 0.432352 0.508510
vt 0.410167 0.508510
vt 0.414107 0.393729
vt 0.428905 0.393729
vt 0.883848 0.689879
vt 0.931481 0.689879
vt 0.339142 0.602648
vt 0.365635 0.602648
vt 0.785480 0.689879
vt 0.284430 0.602648
vt 0.438560 0.673951
vt 0.397094 0.602648
vt 0.988043 0.689879
vt 0.931481 0.512000
vt 0.991049 0.512000
vt 0.365635 0.503713
vt 0.398765 0.503713
vt 0.284430 0.503713
vt 0.339142 0.503713
vt 0.785480 0.512000
vt 0.883848 0.512000
vt 0.438560 0.602648
vt 0.883848 0.204417
vt 0.931481 0.204417
vt 0.931481 0.334120
vt 0.883848 0.334120
vt 0.339142 0.332639
vt 0.339142 0.404778
vt 0.365635 0.404778
vt 0.365635 0.332639
vt 0.785480 0.204417
vt 0.785480 0.334120
vt 0.284430 0.332639
vt 0.284430 0.404778
vt 0.410167 0.277529
vt 0.432352 0.277529
vt 0.397046 0.404778
vt 0.987613 0.204417
vt 0.987957 0.334120
vt 0.452864 0.503713
vt 0.438151 0.404778
vt 0.931481 0.008008
vt 0.991650 0.008008
vt 0.366779 0.799099
vt 0.366779 0.830642
vt 0.293288 0.830642
vt 0.293288 0.799099
vt 0.785480 0.008008
vt 0.883848 0.008008
vt 0.414107 0.193703
vt 0.428905 0.193703
vt 0.428905 0.314173
vt 0.414107 0.314173
vt 0.289321 0.212874
vt 0.289321 0.183476
vt 0.357815 0.183476
vt 0.357815 0.212874
vt 0.447190 0.799099
vt 0.447190 0.830642
vt 0.402366 0.830642
vt 0.402366 0.799099
vt 0.428905 0.690573
vt 0.414107 0.690573
vt 0.390982 0.212874
vt 0.390982 0.183476
vt 0.432878 0.183476
vt 0.432878 0.212874
vt 0.428905 0.795417
vt 0.414107 0.795417
vt 0.432352 0.212506
vt 0.410167 0.212506
vt 0.639479 0.818078
vt 0.639479 0.989011
vt 0.579482 0.989011
vt 0.582918 0.818078
vt 0.203226 0.673951
vt 0.171767 0.673951
vt 0.169856 0.769021
vt 0.203226 0.769021
vt 0.229719 0.223398
vt 0.229719 0.163799
vt 0.140267 0.586959
vt 0.161616 0.586959
vt 0.161616 0.643500
vt 0.140267 0.643500
vt 0.153595 0.831897
vt 0.153595 0.792512
vt 0.199133 0.792512
vt 0.199133 0.831897
vt 0.172006 0.332639
vt 0.169761 0.223398
vt 0.113135 0.223398
vt 0.132345 0.332639
vt 0.161616 0.718889
vt 0.150975 0.718889
vt 0.140267 0.718889
vt 0.113953 0.769021
vt 0.122781 0.862746
vt 0.177255 0.857790
vt 0.140267 0.372849
vt 0.161616 0.372849
vt 0.161616 0.430054
vt 0.140267 0.430054
vt 0.161616 0.793210
vt 0.140267 0.793210
vt 0.203226 0.844630
vt 0.216635 0.216593
vt 0.193826 0.216593
vt 0.193826 0.175214
vt 0.216635 0.175214
vt 0.220843 0.792512
vt 0.242990 0.792512
vt 0.242990 0.831897
vt 0.220843 0.831897
vt 0.143973 0.216593
vt 0.143973 0.175214
vt 0.177255 0.140911
vt 0.120492 0.144488
vt 0.239903 0.175214
vt 0.239903 0.216593
vt 0.229719 0.769021
vt 0.229719 0.841792
vt 0.160155 0.508818
vt 0.160155 0.625548
vt 0.144323 0.625548
vt 0.144323 0.508818
vt 0.203226 0.223398
vt 0.203226 0.159508
vt 0.229719 0.673951
vt 0.687112 0.989011
vt 0.687112 0.818078
vt 0.140267 0.508507
vt 0.161616 0.508507
vt 0.160155 0.392088
vt 0.144323 0.392088
vt 0.687112 0.689879
vt 0.639479 0.689879
vt 0.229719 0.602648
vt 0.203226 0.602648
vt 0.130301 0.673951
vt 0.171767 0.602648
vt 0.582918 0.689879
vt 0.639479 0.512000
vt 0.579911 0.512000
vt 0.203226 0.503713
vt 0.170095 0.503713
vt 0.229719 0.503713
vt 0.687112 0.512000
vt 0.130301 0.602648
vt 0.687112 0.204417
vt 0.687112 0.334120
vt 0.639479 0.334120
vt 0.639479 0.204417
vt 0.229719 0.332639
vt 0.203226 0.332639
vt 0.203226 0.404778
vt 0.229719 0.404778
vt 0.140267 0.286225
vt 0.161616 0.286225
vt 0.171815 0.404778
vt 0.583004 0.334120
vt 0.583347 0.204417
vt 0.130710 0.404778
vt 0.115996 0.503713
vt 0.639479 0.008008
vt 0.579310 0.008008
vt 0.219796 0.799099
vt 0.219796 0.830642
vt 0.687112 0.008008
vt 0.160155 0.178083
vt 0.160155 0.306973
vt 0.144323 0.306973
vt 0.144323 0.178083
vt 0.220826 0.212874
vt 0.220826 0.183476
vt 0.139386 0.799099
vt 0.184210 0.799099
vt 0.184210 0.830642
vt 0.139386 0.830642
vt 0.160155 0.709677
vt 0.144323 0.709677
vt 0.187659 0.212874
vt 0.145764 0.212874
vt 0.145764 0.183476
vt 0.187659 0.183476
vt 0.160155 0.821848
vt 0.144323 0.821848
vt 0.140267 0.223651
vt 0.161616 0.223651
s 0
usemtl painting5
f 38/1/1 31/2/1 4/3/1 27/4/1
f 37/5/2 28/6/2 8/7/2 33/8/2
f 20/9/2 23/10/2 15/11/2 6/12/2
f 45/13/3 34/14/3 83/15/3 98/16/3
f 14/17/4 12/18/4 88/19/4 87/20/4
f 62/21/2 63/22/2 10/23/2 7/24/2
f 34/14/5 11/25/5 9/26/5 84/27/5 83/15/5
f 8/7/2 12/28/2 14/29/2 11/30/2
f 63/31/6 54/32/6 104/33/6 103/34/6
f 9/26/7 11/25/7 14/35/7 87/36/7 84/27/7
f 28/6/2 29/37/2 12/28/2 8/7/2
f 89/38/8 26/39/8 16/40/8 90/41/8
f 94/42/9 29/43/9 22/44/9 81/45/9
f 16/40/10 17/46/10 80/47/10 90/41/10
f 10/23/2 17/48/2 16/49/2 7/24/2
f 13/50/11 82/51/11 81/45/11 22/44/11
f 23/52/12 26/39/12 89/38/12 96/53/12
f 5/54/2 13/55/2 22/56/2 21/57/2
f 15/58/13 23/52/13 96/53/13 91/59/13
f 66/60/14 99/61/14 97/62/14 43/63/14
f 25/64/2 26/65/2 23/10/2 20/9/2
f 32/66/2 5/54/2 21/57/2 35/67/2
f 30/68/1 36/69/1 19/70/1 3/71/1
f 7/24/2 16/49/2 26/65/2 25/64/2
f 68/72/15 100/73/15 104/33/15 54/32/15
f 52/74/16 102/75/16 99/61/16 66/60/16
f 94/42/17 88/19/17 12/18/17 29/43/17
f 21/57/2 22/56/2 29/37/2 28/6/2
f 35/67/2 21/57/2 28/6/2 37/5/2
f 36/69/1 38/1/1 27/4/1 19/70/1
f 41/76/1 42/77/1 38/1/1 36/69/1
f 46/78/2 35/67/2 37/5/2 47/79/2
f 39/80/1 41/76/1 36/69/1 30/68/1
f 40/81/2 32/66/2 35/67/2 46/78/2
f 8/7/2 11/30/2 34/82/2 33/8/2
f 45/13/18 98/16/18 100/73/18 68/72/18
f 47/79/2 37/5/2 33/8/2 44/83/2
f 42/77/1 43/84/1 31/2/1 38/1/1
f 74/85/1 66/86/1 43/84/1 42/77/1
f 70/87/2 47/79/2 44/83/2 67/88/2
f 72/89/2 40/81/2 46/78/2 69/90/2
f 71/91/1 73/92/1 41/76/1 39/80/1
f 69/90/2 46/78/2 47/79/2 70/87/2
f 73/92/1 74/85/1 42/77/1 41/76/1
f 33/8/2 34/82/2 45/93/2 44/83/2
f 59/94/1 60/95/1 51/96/1 50/97/1
f 64/98/2 55/99/2 56/100/2 65/101/2
f 57/102/1 59/94/1 50/97/1 48/103/1
f 58/104/2 49/105/2 55/99/2 64/98/2
f 63/31/19 103/34/19 79/106/19 10/107/19
f 65/101/2 56/100/2 53/108/2 62/21/2
f 60/95/1 61/109/1 52/110/1 51/96/1
f 67/88/2 68/111/2 54/112/2 53/108/2
f 24/113/1 2/114/1 61/109/1 60/95/1
f 25/64/2 65/101/2 62/21/2 7/24/2
f 19/115/20 85/116/20 86/117/20 3/118/20
f 6/12/2 58/104/2 64/98/2 20/9/2
f 1/119/1 18/120/1 59/94/1 57/102/1
f 20/9/2 64/98/2 65/101/2 25/64/2
f 18/120/1 24/113/1 60/95/1 59/94/1
f 53/108/2 54/112/2 63/22/2 62/21/2
f 44/83/2 45/93/2 68/111/2 67/88/2
f 50/97/1 51/96/1 74/85/1 73/92/1
f 55/99/2 69/90/2 70/87/2 56/100/2
f 48/103/1 50/97/1 73/92/1 71/91/1
f 49/105/2 72/89/2 69/90/2 55/99/2
f 2/121/21 76/122/21 101/123/21 61/124/21
f 56/100/2 70/87/2 67/88/2 53/108/2
f 51/96/1 52/110/1 66/86/1 74/85/1
f 76/24/1 90/49/1 80/48/1 79/23/1
f 77/8/1 83/82/1 84/30/1 78/7/1
f 85/57/1 81/56/1 82/55/1 86/54/1
f 84/30/1 87/29/1 88/28/1 78/7/1
f 75/64/1 89/65/1 90/49/1 76/24/1
f 92/12/1 91/11/1 96/10/1 93/9/1
f 95/6/1 94/37/1 81/56/1 85/57/1
f 78/7/1 88/28/1 94/37/1 95/6/1
f 93/9/1 96/10/1 89/65/1 75/64/1
f 97/83/1 98/93/1 83/82/1 77/8/1
f 99/88/1 100/111/1 98/93/1 97/83/1
f 101/21/1 103/22/1 104/112/1 102/108/1
f 76/24/1 79/23/1 103/22/1 101/21/1
f 102/108/1 104/112/1 100/111/1 99/88/1
f 1/125/22 92/126/22 93/127/22 18/128/22
f 4/129/20 78/130/20 95/131/20 27/132/20
f 43/63/23 97/62/23 77/133/23 31/134/23
f 61/124/24 101/123/24 102/75/24 52/74/24
f 24/135/22 75/136/22 76/137/22 2/138/22
f 31/134/25 77/133/25 78/139/25 4/140/25
f 27/132/20 95/131/20 85/116/20 19/115/20
f 4/7/22 78/7/22 84/30/22 9/30/22
f 18/128/22 93/127/22 75/136/22 24/135/22
f 17/141/26 10/107/26 79/106/26 80/142/26
f 134/143/1 125/144/1 106/145/1 128/146/1
f 133/147/2 129/148/2 108/149/2 126/150/2
f 118/151/2 6/12/2 15/11/2 121/152/2
f 139/153/23 182/154/23 170/155/23 130/156/23
f 113/157/27 173/158/27 174/159/27 112/160/27
f 152/161/2 107/162/2 110/163/2 153/164/2
f 130/156/28 170/155/28 171/165/28 109/166/28 111/167/28
f 108/149/2 111/168/2 113/169/2 112/170/2
f 153/171/29 187/172/29 188/173/29 146/174/29
f 109/166/30 171/165/30 173/175/30 113/176/30 111/167/30
f 126/150/2 108/149/2 112/170/2 127/177/2
f 175/178/31 176/179/31 114/180/31 124/181/31
f 178/182/32 169/183/32 120/184/32 127/185/32
f 114/180/33 176/179/33 168/186/33 115/187/33
f 110/163/2 107/162/2 114/188/2 115/189/2
f 13/50/34 120/184/34 169/183/34 82/51/34
f 121/190/35 180/191/35 175/178/35 124/181/35
f 5/54/2 119/192/2 120/193/2 13/55/2
f 15/58/36 91/59/36 180/191/36 121/190/36
f 156/194/37 137/195/37 181/196/37 183/197/37
f 123/198/2 118/151/2 121/152/2 124/199/2
f 32/66/2 131/200/2 119/192/2 5/54/2
f 30/68/1 3/71/1 117/201/1 132/202/1
f 107/162/2 123/198/2 124/199/2 114/188/2
f 158/203/38 146/174/38 188/173/38 184/204/38
f 144/205/39 156/194/39 183/197/39 186/206/39
f 178/182/40 127/185/40 112/160/40 174/159/40
f 119/192/2 126/150/2 127/177/2 120/193/2
f 131/200/2 133/147/2 126/150/2 119/192/2
f 132/202/1 117/201/1 125/144/1 134/143/1
f 135/207/1 132/202/1 134/143/1 136/208/1
f 140/209/2 141/210/2 133/147/2 131/200/2
f 39/80/1 30/68/1 132/202/1 135/207/1
f 40/81/2 140/209/2 131/200/2 32/66/2
f 108/149/2 129/148/2 130/211/2 111/168/2
f 139/153/41 158/203/41 184/204/41 182/154/41
f 141/210/2 138/212/2 129/148/2 133/147/2
f 136/208/1 134/143/1 128/146/1 137/213/1
f 162/214/1 136/208/1 137/213/1 156/215/1
f 160/216/2 157/217/2 138/212/2 141/210/2
f 72/89/2 159/218/2 140/209/2 40/81/2
f 71/91/1 39/80/1 135/207/1 161/219/1
f 159/218/2 160/216/2 141/210/2 140/209/2
f 161/219/1 135/207/1 136/208/1 162/214/1
f 129/148/2 138/212/2 139/220/2 130/211/2
f 149/221/1 142/222/1 143/223/1 150/224/1
f 154/225/2 155/226/2 148/227/2 147/228/2
f 57/102/1 48/103/1 142/222/1 149/221/1
f 58/104/2 154/225/2 147/228/2 49/105/2
f 153/171/42 110/229/42 167/230/42 187/172/42
f 155/226/2 152/161/2 145/231/2 148/227/2
f 150/224/1 143/223/1 144/232/1 151/233/1
f 157/217/2 145/231/2 146/234/2 158/235/2
f 122/236/1 150/224/1 151/233/1 105/237/1
f 123/198/2 107/162/2 152/161/2 155/226/2
f 117/238/20 3/118/20 86/117/20 172/239/20
f 6/12/2 118/151/2 154/225/2 58/104/2
f 1/119/1 57/102/1 149/221/1 116/240/1
f 118/151/2 123/198/2 155/226/2 154/225/2
f 116/240/1 149/221/1 150/224/1 122/236/1
f 145/231/2 152/161/2 153/164/2 146/234/2
f 138/212/2 157/217/2 158/235/2 139/220/2
f 142/222/1 161/219/1 162/214/1 143/223/1
f 147/228/2 148/227/2 160/216/2 159/218/2
f 48/103/1 71/91/1 161/219/1 142/222/1
f 49/105/2 147/228/2 159/218/2 72/89/2
f 105/241/43 151/242/43 185/243/43 164/244/43
f 148/227/2 145/231/2 157/217/2 160/216/2
f 143/223/1 162/214/1 156/215/1 144/232/1
f 164/162/1 167/163/1 168/189/1 176/188/1
f 165/148/1 166/149/1 171/168/1 170/211/1
f 172/192/1 86/54/1 82/55/1 169/193/1
f 171/168/1 166/149/1 174/170/1 173/169/1
f 163/198/1 164/162/1 176/188/1 175/199/1
f 92/12/1 177/151/1 180/152/1 91/11/1
f 179/150/1 172/192/1 169/193/1 178/177/1
f 166/149/1 179/150/1 178/177/1 174/170/1
f 177/151/1 163/198/1 175/199/1 180/152/1
f 181/212/1 165/148/1 170/211/1 182/220/1
f 183/217/1 181/212/1 182/220/1 184/235/1
f 185/161/1 186/231/1 188/234/1 187/164/1
f 164/162/1 185/161/1 187/164/1 167/163/1
f 186/231/1 183/217/1 184/235/1 188/234/1
f 1/125/22 116/245/22 177/246/22 92/126/22
f 106/247/20 125/248/20 179/249/20 166/250/20
f 137/195/3 128/251/3 165/252/3 181/196/3
f 151/242/44 144/205/44 186/206/44 185/243/44
f 122/253/22 105/254/22 164/255/22 163/256/22
f 128/251/45 106/257/45 166/258/45 165/252/45
f 125/248/20 117/238/20 172/239/20 179/249/20
f 106/149/22 109/168/22 171/168/22 166/149/22
f 116/245/22 122/253/22 163/256/22 177/246/22
f 115/259/46 168/260/46 167/230/46 110/229/46
