# Blender 5.1.2
# www.blender.org
mtllib hammer.mtl
o ps1_hammer.002
v 0.350000 0.744206 0.527483
v 0.350000 1.170199 0.527483
v 0.350000 0.744206 0.472517
v 0.350000 1.170199 0.472517
v 0.373214 0.744206 0.527483
v 0.373214 1.170199 0.527483
v 0.373214 0.744206 0.472517
v 0.373214 1.170199 0.472517
v 0.350000 1.206228 0.573054
v 0.350000 1.206228 0.426946
v 0.392459 1.206228 0.426946
v 0.392459 1.206228 0.573054
v 0.350000 1.317571 0.573054
v 0.350000 1.317571 0.426946
v 0.392459 1.317571 0.426946
v 0.392459 1.317571 0.573054
v 0.488625 1.213701 0.469732
v 0.488625 1.213701 0.530268
v 0.488625 1.310098 0.469732
v 0.488625 1.310098 0.530268
v 0.350000 1.280457 0.573054
v 0.350000 1.243342 0.573054
v 0.392459 1.243342 0.426946
v 0.392459 1.280457 0.426946
v 0.392459 1.280457 0.573054
v 0.392459 1.243342 0.573054
v 0.350000 1.243342 0.426946
v 0.350000 1.280457 0.426946
v 0.488625 1.243342 0.444320
v 0.488625 1.280457 0.444320
v 0.488625 1.280457 0.555679
v 0.488625 1.243342 0.555679
v 0.326787 0.744206 0.527483
v 0.326787 1.170199 0.527483
v 0.326787 0.744206 0.472517
v 0.326787 1.170199 0.472517
v 0.307542 1.206228 0.426946
v 0.307542 1.206228 0.573054
v 0.307542 1.317571 0.426946
v 0.307542 1.317571 0.573054
v 0.211375 1.213701 0.469732
v 0.211375 1.213701 0.530268
v 0.211375 1.310098 0.469732
v 0.211375 1.310098 0.530268
v 0.307542 1.243342 0.426946
v 0.307542 1.280457 0.426946
v 0.307542 1.280457 0.573054
v 0.307542 1.243342 0.573054
v 0.211375 1.243342 0.444320
v 0.211375 1.280457 0.444320
v 0.211375 1.280457 0.555679
v 0.211375 1.243342 0.555679
vn -0.0000 -0.0000 -1.0000
vn 1.0000 -0.0000 -0.0000
vn -0.0000 -0.0000 1.0000
vn -0.0000 -1.0000 -0.0000
vn -0.0000 -0.7844 -0.6202
vn 0.0775 -0.9970 -0.0000
vn 0.8821 -0.4712 -0.0000
vn -0.0000 -0.7844 0.6202
vn -0.0000 1.0000 -0.0000
vn 0.2927 0.3402 -0.8936
vn 0.0775 0.9970 -0.0000
vn 0.2927 -0.3402 0.8936
vn 0.2927 0.3402 0.8936
vn 0.1778 -0.0000 0.9841
vn 0.2927 -0.3402 -0.8936
vn 0.1778 -0.0000 -0.9841
vn -1.0000 -0.0000 -0.0000
vn -0.0775 -0.9970 -0.0000
vn -0.8821 -0.4712 -0.0000
vn -0.2927 0.3402 -0.8936
vn -0.0775 0.9970 -0.0000
vn -0.2927 -0.3402 0.8936
vn -0.2927 0.3402 0.8936
vn -0.1778 -0.0000 0.9841
vn -0.2927 -0.3402 -0.8936
vn -0.1778 -0.0000 -0.9841
vt 0.825805 0.922593
vt 0.825805 0.000000
vt 0.875763 0.000000
vt 0.875763 0.922593
vt 0.098695 1.000000
vt 0.098695 0.081673
vt 0.217739 0.081673
vt 0.217739 1.000000
vt 0.925721 0.000000
vt 0.925721 0.922593
vt 0.758159 0.744195
vt 0.707923 0.744195
vt 0.707923 0.625150
vt 0.758159 0.625150
vt 0.574451 0.725167
vt 0.524239 0.726706
vt 0.524239 0.627965
vt 0.616081 0.625150
vt 0.825805 -0.000000
vt 0.825805 0.316433
vt 0.617062 0.223769
vt 0.617062 0.092664
vt 0.000000 -0.000000
vt 0.316433 -0.000000
vt 0.707923 0.726706
vt 0.657710 0.725167
vt 0.707923 0.627965
vt 0.408319 0.316434
vt 0.316434 0.316433
vt 0.316434 0.000000
vt 0.408319 0.000000
vt 0.637955 0.316433
vt 0.637955 0.407809
vt 0.557575 0.407809
vt 0.557575 0.316433
vt 0.396814 0.533775
vt 0.396814 0.625150
vt 0.316434 0.625150
vt 0.316434 0.533775
vt 0.380332 0.625150
vt 0.380332 0.866326
vt 0.316433 0.811291
vt 0.316433 0.680185
vt 0.332619 0.316434
vt 0.396814 0.322598
vt 0.617062 0.092664
vt 0.617062 0.223769
vt 0.718335 0.407809
vt 0.798716 0.407809
vt 0.782530 0.625150
vt 0.718335 0.618986
vt 0.637955 0.618986
vt 0.573760 0.625150
vt 0.557575 0.533775
vt 0.477194 0.533775
vt 0.477194 0.322598
vt 0.541389 0.316434
vt 0.524239 0.680185
vt 0.524238 0.811291
vt 0.460340 0.866326
vt 0.460340 0.625150
vt 0.557575 0.625150
vt 0.477194 0.625150
vt 0.798716 0.316434
vt 0.718335 0.316434
s 0
usemtl Hammer
f 3/1/1 4/2/1 8/3/1 7/4/1
f 7/5/2 8/6/2 6/7/2 5/8/2
f 5/4/3 6/3/3 2/9/3 1/10/3
f 3/11/4 7/12/4 5/13/4 1/14/4
f 8/15/5 4/16/5 10/17/5 11/18/5
f 12/19/6 11/20/6 17/21/6 18/22/6
f 6/7/7 8/6/7 11/23/7 12/24/7
f 2/25/8 6/26/8 12/18/8 9/27/8
f 15/28/9 14/29/9 13/30/9 16/31/9
f 21/32/3 25/33/3 16/34/3 13/35/3
f 24/36/1 28/37/1 14/38/1 15/39/1
f 31/40/2 30/41/2 19/42/2 20/43/2
f 24/36/10 15/39/10 19/44/10 30/45/10
f 15/28/11 16/31/11 20/46/11 19/47/11
f 26/48/12 12/49/12 18/50/12 32/51/12
f 16/34/13 25/33/13 31/52/13 20/53/13
f 25/33/14 26/48/14 32/51/14 31/52/14
f 11/54/15 23/55/15 29/56/15 17/57/15
f 23/55/16 24/36/16 30/45/16 29/56/16
f 18/58/2 17/59/2 29/60/2 32/61/2
f 32/61/2 29/60/2 30/41/2 31/40/2
f 11/54/1 10/62/1 27/63/1 23/55/1
f 23/55/1 27/63/1 28/37/1 24/36/1
f 9/64/3 12/49/3 26/48/3 22/65/3
f 22/65/3 26/48/3 25/33/3 21/32/3
f 3/1/1 35/4/1 36/3/1 4/2/1
f 35/5/17 33/8/17 34/7/17 36/6/17
f 33/4/3 1/10/3 2/9/3 34/3/3
f 3/11/4 1/14/4 33/13/4 35/12/4
f 36/15/5 37/18/5 10/17/5 4/16/5
f 38/19/18 42/22/18 41/21/18 37/20/18
f 34/7/19 38/24/19 37/23/19 36/6/19
f 2/25/8 9/27/8 38/18/8 34/26/8
f 39/28/9 40/31/9 13/30/9 14/29/9
f 21/32/3 13/35/3 40/34/3 47/33/3
f 46/36/1 39/39/1 14/38/1 28/37/1
f 51/40/17 44/43/17 43/42/17 50/41/17
f 46/36/20 50/45/20 43/44/20 39/39/20
f 39/28/21 43/47/21 44/46/21 40/31/21
f 48/48/22 52/51/22 42/50/22 38/49/22
f 40/34/23 44/53/23 51/52/23 47/33/23
f 47/33/24 51/52/24 52/51/24 48/48/24
f 37/54/25 41/57/25 49/56/25 45/55/25
f 45/55/26 49/56/26 50/45/26 46/36/26
f 42/58/17 52/61/17 49/60/17 41/59/17
f 52/61/17 51/40/17 50/41/17 49/60/17
f 37/54/1 45/55/1 27/63/1 10/62/1
f 45/55/1 46/36/1 28/37/1 27/63/1
f 9/64/3 22/65/3 48/48/3 38/49/3
f 22/65/3 21/32/3 47/33/3 48/48/3
