# Blender 5.1.2
# www.blender.org
mtllib chest_bot.mtl
o Chest_Bot.001
v -0.429513 0.057734 -0.414304
v -0.484070 0.530411 -0.515342
v 0.374221 0.071461 -0.458947
v 0.484071 0.530411 -0.515342
v -0.429513 0.057734 0.414305
v -0.484071 0.530411 0.515342
v 0.431103 0.071510 0.402027
v 0.484070 0.530411 0.515342
v -0.374221 0.071461 -0.458947
v -0.374221 0.071461 0.458947
v -0.479181 0.488053 -0.467182
v -0.479181 0.488053 0.467182
v -0.451676 0.491228 0.467182
v -0.451676 0.491228 -0.467182
v -0.402007 0.060909 -0.414304
v -0.402007 0.060909 0.414305
v 0.431103 0.071510 -0.402026
v -0.424624 0.015376 -0.452055
v 0.420721 0.474326 -0.508450
v -0.420721 0.474326 -0.508450
v 0.424624 0.015376 -0.452055
v 0.477591 0.474277 -0.451518
v 0.374221 0.071461 0.458947
v 0.477591 0.474277 0.451518
v 0.424624 0.015376 0.452055
v 0.420721 0.474326 0.508451
v -0.424624 0.015376 0.452055
v -0.420721 0.474326 0.508451
v 0.420721 0.477703 0.480969
v -0.420721 0.477703 0.480969
v 0.374221 0.074838 0.431465
v -0.374221 0.074838 0.431465
v -0.420721 0.477703 -0.480969
v 0.420721 0.477703 -0.480969
v 0.374221 0.074838 -0.431465
v -0.374221 0.074838 -0.431465
v 0.450086 0.477452 -0.451518
v 0.450086 0.477452 0.451518
v 0.403597 0.074685 -0.402026
v 0.403597 0.074685 0.402027
v -0.479181 0.488053 -0.124477
v -0.484071 0.530411 -0.124478
v -0.484071 0.530411 0.132410
v -0.479181 0.488053 0.132411
v -0.451676 0.491228 0.132112
v -0.451676 0.491228 -0.124775
v -0.448460 0.462603 -0.090411
v -0.448460 0.389144 0.050856
v -0.448460 0.389144 -0.045205
v -0.447626 0.462603 0.096062
v -0.478491 0.462778 0.096153
v -0.479325 0.462778 -0.090320
v -0.479325 0.389319 0.050947
v -0.479325 0.389319 -0.045114
vn -0.0000 0.9925 -0.1220
vn 0.0139 0.1204 -0.9926
vn -0.0000 -0.9925 -0.1220
vn -0.0139 0.1204 -0.9926
vn -0.0000 -1.0000 -0.0000
vn -0.9934 -0.1147 -0.0000
vn 0.1147 -0.9934 -0.0000
vn -0.1147 0.9934 -0.0000
vn -0.0139 0.1204 0.9926
vn -0.0000 -0.1220 -0.9925
vn 0.9934 -0.1147 -0.0000
vn -0.0000 -0.1220 0.9925
vn -0.9935 0.1130 0.0139
vn 0.9935 0.1130 0.0139
vn -0.0000 0.9925 0.1220
vn -0.0000 -0.9925 0.1220
vn -0.9935 0.1130 -0.0139
vn 0.9935 0.1130 -0.0139
vn 0.1147 0.9934 -0.0000
vn -0.1147 -0.9934 -0.0000
vn 0.0139 0.1204 0.9926
vn -0.0055 -0.5241 -0.8516
vn -1.0000 0.0057 0.0030
vn -0.0005 -0.5241 0.8517
vn -0.0057 -1.0000 -0.0000
vn 0.0362 -0.7847 -0.6189
vn 0.9999 0.0109 -0.0019
vn -0.0451 0.7995 -0.5989
vt 0.774422 0.075269
vt 0.940077 0.075939
vt 0.067270 0.251990
vt 0.069351 0.075593
vt 0.737796 0.250231
vt 0.569471 0.249824
vt 0.408452 0.323273
vt 0.408501 0.518585
vt 0.420154 0.562389
vt 0.420500 0.803339
vt 0.047063 0.803961
vt 0.046834 0.561952
vt 0.058606 0.327103
vt 0.058237 0.517029
vt 0.046751 0.533485
vt 0.046749 0.307979
vt 0.420161 0.309235
vt 0.419303 0.534925
vt 0.186707 0.517600
vt 0.188033 0.534031
vt 0.283006 0.518028
vt 0.282894 0.518027
vt 0.762233 0.050697
vt 0.952309 0.051595
vt 0.941202 0.251080
vt 0.952826 0.275441
vt 0.772990 0.251498
vt 0.761324 0.276053
vt 0.399021 0.250441
vt 0.397278 0.075392
vt 0.419853 0.050966
vt 0.420365 0.274747
vt 0.046822 0.051037
vt 0.045879 0.276665
vt 0.736922 0.075296
vt 0.749280 0.051052
vt 0.749401 0.274621
vt 0.569842 0.073635
vt 0.557414 0.048997
vt 0.557936 0.274317
vt 0.280888 0.534390
vt 0.186595 0.517599
vt 0.198305 0.308248
vt 0.226158 0.308257
vt 0.225362 0.324232
vt 0.198130 0.324253
vt 0.249637 0.473142
vt 0.266646 0.503796
vt 0.201392 0.503112
vt 0.219547 0.472624
vt 0.405766 0.407136
vt 0.405766 0.361822
vt 0.421981 0.361875
vt 0.421981 0.407189
vt 0.246852 0.309351
vt 0.246056 0.325326
vt 0.184647 0.323996
vt 0.183949 0.309700
vt 0.188612 0.517133
vt 0.278507 0.518068
vt 0.420122 0.344432
vt 0.405251 0.344091
vt 0.405251 0.322776
vt 0.418579 0.322202
s 0
usemtl Chest_Top
f 3/1/1 9/2/1 36/2/1 35/1/1
f 24/3/2 7/4/2 40/4/2 38/3/2
f 26/5/3 28/6/3 30/6/3 29/5/3
f 5/7/4 12/8/4 13/8/4 16/7/4
f 21/9/5 25/10/5 27/11/5 18/12/5
f 1/13/6 11/14/6 2/15/6 18/16/6
f 12/8/6 5/7/6 27/17/6 6/18/6
f 5/7/6 1/13/6 18/16/6 27/17/6
f 11/14/6 41/19/6 42/20/6 2/15/6
f 12/8/7 44/21/7 45/22/7 13/8/7
f 1/13/8 5/7/8 16/7/8 15/13/8
f 11/14/9 1/13/9 15/13/9 14/14/9
f 9/2/10 3/1/10 21/23/10 18/24/10
f 20/25/10 9/2/10 18/24/10 2/26/10
f 19/27/10 20/25/10 2/26/10 4/28/10
f 3/1/10 19/27/10 4/28/10 21/23/10
f 22/29/11 17/30/11 21/31/11 4/32/11
f 17/30/11 7/4/11 25/33/11 21/31/11
f 24/3/11 22/29/11 4/32/11 8/34/11
f 7/4/11 24/3/11 8/34/11 25/33/11
f 26/5/12 23/35/12 25/36/12 8/37/12
f 23/35/12 10/38/12 27/39/12 25/36/12
f 28/6/12 26/5/12 8/37/12 6/40/12
f 10/38/12 28/6/12 6/40/12 27/39/12
f 29/5/12 30/6/12 32/38/12 31/35/12
f 23/35/13 26/5/13 29/5/13 31/35/13
f 28/6/14 10/38/14 32/38/14 30/6/14
f 10/38/15 23/35/15 31/35/15 32/38/15
f 33/25/10 34/27/10 35/1/10 36/2/10
f 20/25/16 19/27/16 34/27/16 33/25/16
f 19/27/17 3/1/17 35/1/17 34/27/17
f 9/2/18 20/25/18 33/25/18 36/2/18
f 37/29/11 38/3/11 40/4/11 39/30/11
f 7/4/19 17/30/19 39/30/19 40/4/19
f 22/29/20 24/3/20 38/3/20 37/29/20
f 17/30/21 22/29/21 37/29/21 39/30/21
f 42/20/6 41/19/6 44/21/6 43/41/6
f 43/41/6 44/21/6 12/8/6 6/18/6
f 46/42/7 41/19/7 11/14/7 14/14/7
f 15/13/6 16/7/6 13/8/6 14/14/6
f 47/43/22 49/44/22 54/45/22 52/46/22
f 53/47/23 51/48/23 52/49/23 54/50/23
f 48/51/24 50/52/24 51/53/24 53/54/24
f 49/44/25 48/55/25 53/56/25 54/45/25
f 41/57/26 46/58/26 47/43/26 52/46/26
f 44/59/27 51/49/27 52/48/27 41/60/27
f 50/61/28 51/62/28 44/63/28 45/64/28
